<svg width="100%" height="100%" viewBox="0 0 199 159" fill="none" xmlns="http://www.w3.org/2000/svg" preserveAspectRatio="none">
<path d="M147.622 126.854C146.281 127.961 144.634 128.555 142.953 128.595C141.957 128.616 140.956 128.447 140.005 128.071C138.849 127.613 137.879 126.857 137.092 125.96C129.389 135.974 118.491 143.366 105.897 146.628C112.919 141.738 118.728 133.309 122.622 122.65H135.43C135.38 122.425 135.282 122.223 135.256 121.995L134.586 116.91H124.468C126.443 109.885 127.622 102.094 127.846 93.8079H131.542L130.786 88.0676H127.846C127.74 84.2228 127.406 80.493 126.915 76.8947C125.086 77.4044 123.186 77.907 121.302 78.4097C121.711 81.5476 122.011 84.7512 122.11 88.0676H101.887L100.723 93.8079H122.108C121.863 102.125 120.607 109.976 118.498 116.91H94.3223V104.224L91.3817 106.28C90.5291 106.883 89.5685 107.217 88.582 107.421V116.91H64.4066C63.3755 113.514 62.5511 109.89 61.9475 106.106C61.3204 106.359 60.6745 106.615 60.0591 106.879C58.8284 107.402 57.7292 107.924 56.5595 108.447C57.0739 111.355 57.6799 114.204 58.4338 116.91H40.0974V116.905C38.4462 117.913 36.8702 118.918 35.4093 119.94C34.2561 120.752 33.2062 121.551 32.2127 122.342C43.4983 143.54 65.8064 158.017 91.4498 158.017C115.498 158.017 136.564 145.257 148.406 126.194L147.622 126.854ZM43.3997 122.65H60.2823C64.1835 133.309 69.9825 141.738 77.0075 146.628C63.0538 143.018 51.1457 134.356 43.3997 122.65ZM88.582 145.4C79.4619 143.885 71.5068 135.249 66.4547 122.65H88.582V145.4ZM94.3223 122.65H116.45C111.402 135.242 103.438 143.885 94.3223 145.4V122.65Z" fill="currentColor"/>
<path d="M199 30.7659C189.617 24.5958 169.998 28.9503 148.232 37.3493L109.991 0L97.1079 0.441561L127.85 46.0232C115.202 51.8386 102.674 58.3117 91.6894 64.2939L75.8214 52.3107L69.2309 53.0787L85.6179 73.7216L87.0295 100.046L92.4715 96.2482L96.4103 76.7609C108.6 73.9706 122.281 70.5133 135.603 66.4923L142.774 120.997L152.714 112.788L156.599 59.4837C178.484 51.3407 196.059 41.6005 199 30.7659Z" fill="currentColor"/>
<path d="M107.785 29.8546L104.619 25.1595C100.347 24.3093 95.957 23.8442 91.4427 23.8442C57.9453 23.8442 30.1834 48.5504 25.2276 80.6809C29.3496 77.5712 33.3542 74.8373 37.0205 72.458C37.8896 69.8815 38.8737 67.3542 40.0926 64.9562H49.3302C52.6607 63.0373 56.0804 61.1207 59.6786 59.2159H43.3949C51.1363 47.5099 63.049 38.8502 77.0051 35.2379C73.266 37.8449 69.8838 41.4784 66.9362 45.8963C67.3989 45.7484 67.8592 45.591 68.3548 45.537L74.9453 44.769C74.9852 44.7666 75.0322 44.769 75.0674 44.7666C79.0532 40.2641 83.6332 37.2883 88.5773 36.4709V52.4281L92.3705 55.2959C93.0328 54.9413 93.6599 54.6289 94.3176 54.2742V36.4709C99.8911 37.394 105.028 41.011 109.34 46.5352L116.776 43.0004L107.785 29.8546Z" fill="currentColor"/>
<path d="M78.1724 76.5471L67.8451 63.5399C60.8295 67.1358 52.9965 71.3964 44.8112 76.4978C35.67 82.2428 26.0731 88.8756 17.2725 97.3286C12.9039 101.587 8.70436 106.32 5.29871 112.027C3.61468 114.885 2.15378 118.014 1.14852 121.401C0.878421 122.23 0.69757 123.122 0.490883 123.987C0.380493 124.416 0.328821 124.867 0.246616 125.309L0.00704621 126.908L0 128.863L0.0540206 131.742C0.305334 135.211 1.23073 138.903 3.07213 142.123C4.87125 145.372 7.57227 147.868 10.2592 149.47C15.7247 152.672 20.8496 153.195 25.2628 153.456C34.1246 153.726 40.9264 152.282 45.685 151.337C47.167 151.023 48.4142 150.736 49.4711 150.49C35.6606 149.764 27.0573 146.452 22.4373 143.944C21.1173 143.274 19.8937 142.523 18.8485 141.649C18.367 141.276 18.1039 141.031 18.1039 141.031L18.1932 141.024C17.909 140.754 17.5778 140.5 17.3383 140.212C15.2573 137.724 15.2033 135.465 15.9408 132.224C16.0676 131.89 16.178 131.587 16.2696 131.272L16.8309 129.396L16.8497 129.342C16.9014 129.048 16.798 129.673 16.8121 129.591L16.8427 129.525L16.8943 129.377L16.9977 129.093C17.0752 128.907 17.1175 128.719 17.2138 128.524C17.3993 128.141 17.5261 127.759 17.7493 127.371C18.5291 125.814 19.5954 124.229 20.9154 122.655C23.5624 119.501 27.1442 116.48 31.0689 113.72C38.9888 108.198 48.2357 103.677 57.1044 99.8981C64.8176 96.624 72.2654 93.9723 78.9874 91.741L78.1724 76.5471Z" fill="currentColor"/>
</svg>
